<svg xmlns="http://www.w3.org/2000/svg" fill="none" viewBox="0 0 64 18"><path fill="#111" d="M55.161 12.323h2.77V5.355h-2.77V4.108h4.236v2.384h.092q.293-1.12 1.1-1.742.825-.642 2.09-.642H64v1.467h-1.779q-1.265 0-2.054.733-.77.734-.77 1.926v4.09h3.668v1.246H55.16zM48.42 13.79q-1.027 0-1.852-.348a4 4 0 0 1-1.394-.99 4.8 4.8 0 0 1-.88-1.56 6.3 6.3 0 0 1-.312-2.035q0-1.136.312-2.054.33-.915.899-1.558.567-.66 1.357-1.009a4.4 4.4 0 0 1 1.778-.348q.954 0 1.724.348.789.348 1.339.972.55.605.843 1.449.294.844.294 1.852v.697h-7.005v.44q0 .623.201 1.155.202.531.569.917.385.385.917.605.55.201 1.21.202.954 0 1.65-.44a2.85 2.85 0 0 0 1.064-1.21l1.082.733q-.422.954-1.412 1.577-.972.605-2.384.605m-.092-8.692a2.8 2.8 0 0 0-2.017.825q-.366.386-.587.917a3.1 3.1 0 0 0-.201 1.137v.128h5.428v-.201q0-.624-.202-1.137a2.5 2.5 0 0 0-.532-.88 2.1 2.1 0 0 0-.825-.587 2.7 2.7 0 0 0-1.064-.202M33.555 0h1.467v5.648h.073q.147-.348.367-.66.22-.33.532-.569.33-.238.77-.385a3.3 3.3 0 0 1 1.027-.146q1.485 0 2.384.953.899.935.899 2.66v6.069h-1.468V7.757q0-1.302-.568-1.926-.568-.64-1.669-.641a3.4 3.4 0 0 0-.862.11 2.5 2.5 0 0 0-.751.33q-.33.22-.532.568a1.6 1.6 0 0 0-.202.807v6.565h-1.467zm-6.833 13.57q-1.082 0-1.595-.605-.495-.605-.495-1.559V5.355h-3.155V4.108h2.348q.477 0 .66-.184.202-.201.202-.678V.77h1.412v3.338h4.31v1.247h-4.31v6.968h4.31v1.247zm-7.878 0q-.862 0-1.229-.44-.366-.44-.458-1.1h-.092q-.312.825-1.008 1.302-.68.458-1.834.458-1.485 0-2.366-.77-.88-.77-.88-2.109 0-1.32.954-2.035.972-.716 3.117-.716h2.017v-.935q0-1.045-.587-1.559-.586-.531-1.668-.531-.954 0-1.56.385a2.75 2.75 0 0 0-.971 1.008l-.99-.733q.183-.367.495-.715.311-.349.77-.606a3.8 3.8 0 0 1 1.045-.421q.588-.165 1.302-.165 1.67 0 2.641.843.99.844.99 2.347v5.208h1.32v1.284zm-4.364-1.008q.568 0 1.027-.129.475-.147.825-.367.349-.238.531-.55.202-.33.202-.697V9.261h-2.017q-1.32 0-1.925.366-.606.368-.606 1.064v.385q0 .734.514 1.119.531.367 1.449.367m-5.421 2.09q0 1.43-1.192 2.109-1.192.696-3.576.697-2.292 0-3.3-.605Q0 16.246 0 15.11q0-.77.403-1.191.404-.423 1.137-.624v-.22a1.64 1.64 0 0 1-.623-.513q-.22-.312-.22-.79 0-.732.477-1.1.496-.366 1.228-.55v-.073a3.1 3.1 0 0 1-1.375-1.137Q.55 8.16.55 7.152q0-.715.257-1.32t.733-1.027a3.5 3.5 0 0 1 1.174-.679 4.5 4.5 0 0 1 1.504-.238q1.063 0 1.87.385v-.165q0-.55.257-.917.256-.367.88-.367h1.742v1.284H6.84v.642q.513.44.789 1.045.275.605.275 1.357 0 .716-.275 1.32a3 3 0 0 1-.734 1.045q-.477.423-1.174.66a4.5 4.5 0 0 1-1.503.239 5.5 5.5 0 0 1-.899-.073 2.4 2.4 0 0 0-.458.128 1.5 1.5 0 0 0-.44.22q-.203.129-.33.312a.7.7 0 0 0-.129.422q0 .42.422.568.422.128 1.1.128h2.09q1.835 0 2.66.697.825.68.825 1.834m-1.375.073q0-.568-.459-.917-.458-.33-1.595-.33H2.347q-.953.386-.953 1.284 0 .624.495 1.064.495.458 1.65.458h1.43q1.284 0 2-.403.715-.385.715-1.156M4.218 9.28q1.1 0 1.613-.513.532-.514.532-1.357v-.532q0-.844-.532-1.339-.513-.513-1.613-.513t-1.614.513q-.513.495-.513 1.339v.532q0 .843.513 1.357.513.513 1.614.513"/></svg>