<svg xmlns="http://www.w3.org/2000/svg" fill="none" viewBox="0 0 32 32"><g clip-path="url(#a)"><path fill="#111" d="M16.5 0v7h-1V0zM0 15.5h7v1H0zm25 0h7v1h-7zM16.5 25v7h-1v-7zM5.038 4.331l.356.356 4.243 4.244.357.357-.707.706-.356-.357-4.243-4.243-.357-.357zM4.33 26.956l.356-.356 4.244-4.244.357-.356.706.706-.357.357-4.243 4.25-.357.356-.706-.707zM22.013 9.281l.356-.356 4.237-4.238.356-.356.707.706-.357.357-4.243 4.243-.357.357-.706-.707zm.706 12.725.356.357 4.238 4.243.356.356-.707.707-.356-.357-4.244-4.243-.356-.357.706-.706zM22.5 16a6.5 6.5 0 1 0-13 0 6.5 6.5 0 0 0 13 0m-14 0a7.5 7.5 0 1 1 15 0 7.5 7.5 0 0 1-15 0"/></g><defs><clipPath id="a"><path fill="#fff" d="M0 0h32v32H0z"/></clipPath></defs></svg>